<svg width="4" height="5" viewBox="0 0 4 5" fill="none" xmlns="http://www.w3.org/2000/svg">
<g clip-path="url(#clip0_136_1035)">
<path d="M0.738588 3.01836L2.9915 3.18524L3.14036 2.6482H3.21693C3.41293 2.6482 3.57322 2.82811 3.57322 3.03554V3.05098C3.57322 3.26687 3.40136 3.45376 3.19693 3.45376H0.14286C0.0647157 3.45376 0 3.50505 0 3.58211C0 3.65918 0.0638586 3.72228 0.142003 3.72228H3.20279C3.56337 3.72228 3.85723 3.421 3.85723 3.05098V3.03554C3.85723 2.67398 3.57051 2.37968 3.21693 2.37968H3.21479L3.21536 2.37807C3.23087 2.37501 3.24484 2.36714 3.25502 2.35572C3.2652 2.3443 3.27101 2.33 3.2715 2.31511V2.31C3.27148 2.30081 3.26932 2.29174 3.26517 2.28341C3.26103 2.27508 3.255 2.26771 3.2475 2.2618L3.62437 0.902832H0.457153C0.205719 0.902832 0 1.09509 0 1.33958L0.0742874 2.48011C0.0957164 2.81804 0.434295 2.99567 0.738588 3.01836ZM2.80235 2.24542H2.57149V1.70839H2.94364L2.80235 2.24542ZM2.97892 1.57413H2.57149V1.17229L2.85006 1.17256C2.97007 1.17256 3.05721 1.27674 3.02864 1.38496L2.97892 1.57413ZM2.42863 1.17216V1.57413H1.8029V1.17135L2.42863 1.17216ZM1.66004 1.17122V1.57413H1.00288V1.17055L1.66004 1.17122ZM0.860019 1.17041V1.57413H0.301578L0.285721 1.33152C0.285721 1.24211 0.362865 1.16987 0.458582 1.16987L0.860019 1.17041ZM0.310436 1.70839H0.860019V2.24542H0.345722L0.310436 1.70839ZM0.354436 2.37968H0.860019V2.75964L0.762874 2.75252C0.571441 2.73775 0.371437 2.63505 0.360008 2.464L0.354436 2.37968ZM1.00288 2.77038V2.37968H1.66004V2.81898L1.00288 2.77038ZM1.8029 2.82945V2.37968H2.42863V2.8657C2.42863 2.86919 2.42891 2.87259 2.42948 2.87591L1.8029 2.82945ZM2.57149 2.86302V2.37968H2.76706L2.67006 2.74849C2.66369 2.77326 2.65154 2.79638 2.63449 2.81618C2.61744 2.83599 2.59592 2.85199 2.57149 2.86302ZM1.8029 1.70839H2.42863V2.24542H1.8029V1.70839ZM1.00288 1.70839H1.66004V2.24542H1.00288V1.70839Z" fill="#9B9B9B"/>
<path d="M2.97213 3.31548C2.89184 3.29789 2.84184 3.22311 2.86155 3.15101L3.55928 0.603173C3.579 0.531075 3.66229 0.486233 3.74243 0.503821C3.82272 0.521543 3.87272 0.59646 3.853 0.668557L3.15527 3.21613C3.13556 3.28957 3.05384 3.33307 2.97213 3.31548Z" fill="#BEBEBE"/>
<path d="M3.57148 0.768519H3.8572C3.93578 0.768519 4.00006 0.708102 4.00006 0.634259C4.00006 0.560417 3.93578 0.5 3.8572 0.5H3.57148C3.49291 0.5 3.42862 0.560417 3.42862 0.634259C3.42862 0.708102 3.49291 0.768519 3.57148 0.768519ZM0.499985 4.125C0.556818 4.125 0.611324 4.10378 0.651511 4.06602C0.691698 4.02825 0.714275 3.97702 0.714275 3.92361C0.714275 3.8702 0.691698 3.81898 0.651511 3.78121C0.611324 3.74344 0.556818 3.72222 0.499985 3.72222C0.443151 3.72222 0.388646 3.74344 0.348458 3.78121C0.308271 3.81898 0.285694 3.8702 0.285694 3.92361C0.285694 3.97702 0.308271 4.02825 0.348458 4.06602C0.388646 4.10378 0.443151 4.125 0.499985 4.125ZM3.07147 4.125C3.1283 4.125 3.18281 4.10378 3.223 4.06602C3.26318 4.02825 3.28576 3.97702 3.28576 3.92361C3.28576 3.8702 3.26318 3.81898 3.223 3.78121C3.18281 3.74344 3.1283 3.72222 3.07147 3.72222C3.01464 3.72222 2.96013 3.74344 2.91994 3.78121C2.87976 3.81898 2.85718 3.8702 2.85718 3.92361C2.85718 3.97702 2.87976 4.02825 2.91994 4.06602C2.96013 4.10378 3.01464 4.125 3.07147 4.125Z" fill="#0084CE"/>
</g>
<defs>
<clipPath id="clip0_136_1035">
<rect width="4" height="4" fill="white" transform="translate(0 0.5)"/>
</clipPath>
</defs>
</svg>
