<svg width="5" height="4" viewBox="0 0 5 4" fill="none" xmlns="http://www.w3.org/2000/svg">
<path d="M3.95835 2.66667H3.43231C3.40125 2.66669 3.3706 2.67232 3.34265 2.68314C3.31469 2.69396 3.29015 2.7097 3.27085 2.72917L2.66148 3.3375C2.64196 3.35703 2.6172 3.37279 2.58904 3.38362C2.56087 3.39445 2.53002 3.40008 2.49877 3.40008C2.46752 3.40008 2.43667 3.39445 2.4085 3.38362C2.38034 3.37279 2.35558 3.35703 2.33606 3.3375L1.72669 2.72917C1.70737 2.70967 1.6828 2.69393 1.6548 2.6831C1.62681 2.67228 1.59611 2.66666 1.56502 2.66667H1.04169C0.695437 2.66667 0.416687 2.44367 0.416687 2.16667V1C0.416687 0.723 0.695437 0.5 1.04169 0.5H3.95835C4.30481 0.5 4.58335 0.723 4.58335 1V2.16667C4.58335 2.44367 4.30481 2.66667 3.95835 2.66667Z" fill="#1E88E5"/>
</svg>
