<svg width="13" height="13" viewBox="0 0 13 13" fill="none" xmlns="http://www.w3.org/2000/svg">
<circle cx="6.25" cy="6.25" r="6.25" fill="#DE3151"/>
<path d="M7.80528 7.47137C8.19545 6.99853 8.44188 6.39207 8.44188 5.72394C8.44188 4.2232 7.22002 3 5.72094 3C4.22186 3 3 4.2232 3 5.72394C3 7.22467 4.22186 8.44787 5.72094 8.44787C6.37807 8.44787 6.99413 8.21145 7.46645 7.81057L9.58159 9.92805C9.63293 9.97944 9.69454 10 9.75614 10C9.81775 10 9.87935 9.97944 9.93069 9.92805C10.0231 9.83554 10.0231 9.67107 9.93069 9.57856L7.80528 7.47137ZM5.71067 7.95448C4.47855 7.95448 3.48258 6.95742 3.48258 5.72394C3.48258 4.49046 4.47855 3.49339 5.71067 3.49339C6.94279 3.49339 7.93876 4.49046 7.93876 5.72394C7.93876 6.95742 6.94279 7.95448 5.71067 7.95448Z" fill="white"/>
</svg>
