<svg width="4" height="4" viewBox="0 0 4 4" fill="none" xmlns="http://www.w3.org/2000/svg">
<g clip-path="url(#clip0_136_1040)">
<g filter="url(#filter0_i_136_1040)">
<path d="M1.84575 1.84766C1.84575 1.8145 1.85892 1.78271 1.88236 1.75927C1.9058 1.73583 1.9376 1.72266 1.97075 1.72266H3.5995C3.63265 1.72266 3.66445 1.73583 3.68789 1.75927C3.71133 1.78271 3.7245 1.8145 3.7245 1.84766V3.61328C3.7245 3.64643 3.71133 3.67823 3.68789 3.70167C3.66445 3.72511 3.63265 3.73828 3.5995 3.73828H1.97075C1.9376 3.73828 1.9058 3.72511 1.88236 3.70167C1.85892 3.67823 1.84575 3.64643 1.84575 3.61328V1.84766Z" fill="url(#paint0_linear_136_1040)"/>
<path d="M1.84575 1.84766C1.84575 1.8145 1.85892 1.78271 1.88236 1.75927C1.9058 1.73583 1.9376 1.72266 1.97075 1.72266H3.5995C3.63265 1.72266 3.66445 1.73583 3.68789 1.75927C3.71133 1.78271 3.7245 1.8145 3.7245 1.84766V3.61328C3.7245 3.64643 3.71133 3.67823 3.68789 3.70167C3.66445 3.72511 3.63265 3.73828 3.5995 3.73828H1.97075C1.9376 3.73828 1.9058 3.72511 1.88236 3.70167C1.85892 3.67823 1.84575 3.64643 1.84575 3.61328V1.84766Z" fill="url(#paint1_radial_136_1040)"/>
</g>
<g filter="url(#filter1_f_136_1040)">
<path d="M2.1855 2.09569C2.1855 2.07911 2.17891 2.06321 2.16719 2.05149C2.15547 2.03977 2.13957 2.03319 2.123 2.03319C2.10642 2.03319 2.09052 2.03977 2.0788 2.05149C2.06708 2.06321 2.0605 2.07911 2.0605 2.09569H2.1855ZM3.3535 2.00781C3.3535 1.99124 3.34691 1.97534 3.33519 1.96362C3.32347 1.9519 3.30757 1.94531 3.291 1.94531C3.27442 1.94531 3.25852 1.9519 3.2468 1.96362C3.23508 1.97534 3.2285 1.99124 3.2285 2.00781H3.3535ZM2.1855 2.36319V2.09569H2.0605V2.36319H2.1855ZM3.2285 2.00781V2.36319H3.3535V2.00781H3.2285ZM2.707 2.92569C2.42575 2.92569 2.1855 2.67769 2.1855 2.36319H2.0605C2.0605 2.73906 2.34925 3.05069 2.707 3.05069V2.92569ZM2.707 3.05069C3.06475 3.05069 3.3535 2.73906 3.3535 2.36319H3.2285C3.2285 2.67769 2.98825 2.92569 2.707 2.92569V3.05069Z" fill="#F19A39"/>
</g>
<g filter="url(#filter2_i_136_1040)">
<path d="M2.252 2.01758C2.252 2.001 2.24541 1.9851 2.23369 1.97338C2.22197 1.96166 2.20607 1.95508 2.1895 1.95508C2.17292 1.95508 2.15703 1.96166 2.1453 1.97338C2.13358 1.9851 2.127 2.001 2.127 2.01758H2.252ZM3.41987 2.01758C3.41987 2.001 3.41329 1.9851 3.40157 1.97338C3.38985 1.96166 3.37395 1.95508 3.35737 1.95508C3.3408 1.95508 3.3249 1.96166 3.31318 1.97338C3.30146 1.9851 3.29487 2.001 3.29487 2.01758H3.41987ZM2.252 2.2852V2.0177H2.127V2.2852H2.252ZM3.29487 2.0177V2.2852H3.41987V2.0177H3.29487ZM2.77337 2.8477C2.49212 2.8477 2.252 2.5997 2.252 2.2852H2.127C2.127 2.66108 2.41575 2.9727 2.7735 2.9727L2.77337 2.8477ZM2.7735 2.9727C3.13137 2.9727 3.41987 2.66108 3.41987 2.2852H3.29487C3.29487 2.5997 3.05475 2.8477 2.77337 2.8477L2.7735 2.9727Z" fill="#E45A3B"/>
</g>
<g filter="url(#filter3_f_136_1040)">
<path d="M2.2265 2.01758C2.2265 2.01343 2.22485 2.00946 2.22192 2.00653C2.21899 2.0036 2.21502 2.00195 2.21087 2.00195C2.20673 2.00195 2.20275 2.0036 2.19982 2.00653C2.19689 2.00946 2.19525 2.01343 2.19525 2.01758H2.2265ZM3.3945 2.01758C3.3945 2.01343 3.39285 2.00946 3.38992 2.00653C3.38699 2.0036 3.38302 2.00195 3.37887 2.00195C3.37473 2.00195 3.37075 2.0036 3.36782 2.00653C3.36489 2.00946 3.36325 2.01343 3.36325 2.01758H3.3945ZM2.2265 2.2852V2.0177H2.19525V2.2852H2.2265ZM3.36325 2.0177V2.2852H3.3945V2.0177H3.36325ZM2.79487 2.89458C2.48487 2.89458 2.2265 2.6227 2.2265 2.2852H2.19525C2.19525 2.63808 2.46575 2.92583 2.79487 2.92583V2.89458ZM2.79487 2.92583C3.124 2.92583 3.3945 2.63808 3.3945 2.2852H3.36325C3.36325 2.6227 3.10487 2.89458 2.79487 2.89458V2.92583Z" fill="url(#paint2_linear_136_1040)"/>
<path d="M2.2265 2.01758C2.2265 2.01343 2.22485 2.00946 2.22192 2.00653C2.21899 2.0036 2.21502 2.00195 2.21087 2.00195C2.20673 2.00195 2.20275 2.0036 2.19982 2.00653C2.19689 2.00946 2.19525 2.01343 2.19525 2.01758H2.2265ZM3.3945 2.01758C3.3945 2.01343 3.39285 2.00946 3.38992 2.00653C3.38699 2.0036 3.38302 2.00195 3.37887 2.00195C3.37473 2.00195 3.37075 2.0036 3.36782 2.00653C3.36489 2.00946 3.36325 2.01343 3.36325 2.01758H3.3945ZM2.2265 2.2852V2.0177H2.19525V2.2852H2.2265ZM3.36325 2.0177V2.2852H3.3945V2.0177H3.36325ZM2.79487 2.89458C2.48487 2.89458 2.2265 2.6227 2.2265 2.2852H2.19525C2.19525 2.63808 2.46575 2.92583 2.79487 2.92583V2.89458ZM2.79487 2.92583C3.124 2.92583 3.3945 2.63808 3.3945 2.2852H3.36325C3.36325 2.6227 3.10487 2.89458 2.79487 2.89458V2.92583Z" fill="url(#paint3_linear_136_1040)"/>
</g>
<path d="M2.36137 0.960938H0.376999C0.307963 0.960938 0.251999 1.0169 0.251999 1.08594V3.34769C0.251999 3.41672 0.307963 3.47269 0.376999 3.47269H2.36137C2.43041 3.47269 2.48637 3.41672 2.48637 3.34769V1.08594C2.48637 1.0169 2.43041 0.960938 2.36137 0.960938Z" fill="url(#paint4_linear_136_1040)"/>
<path d="M2.36137 0.960938H0.376999C0.307963 0.960938 0.251999 1.0169 0.251999 1.08594V3.34769C0.251999 3.41672 0.307963 3.47269 0.376999 3.47269H2.36137C2.43041 3.47269 2.48637 3.41672 2.48637 3.34769V1.08594C2.48637 1.0169 2.43041 0.960938 2.36137 0.960938Z" fill="url(#paint5_linear_136_1040)"/>
<path d="M2.36137 0.960938H0.376999C0.307963 0.960938 0.251999 1.0169 0.251999 1.08594V3.34769C0.251999 3.41672 0.307963 3.47269 0.376999 3.47269H2.36137C2.43041 3.47269 2.48637 3.41672 2.48637 3.34769V1.08594C2.48637 1.0169 2.43041 0.960938 2.36137 0.960938Z" fill="url(#paint6_linear_136_1040)"/>
<path d="M2.36137 0.960938H0.376999C0.307963 0.960938 0.251999 1.0169 0.251999 1.08594V3.34769C0.251999 3.41672 0.307963 3.47269 0.376999 3.47269H2.36137C2.43041 3.47269 2.48637 3.41672 2.48637 3.34769V1.08594C2.48637 1.0169 2.43041 0.960938 2.36137 0.960938Z" fill="url(#paint7_linear_136_1040)"/>
<g filter="url(#filter4_f_136_1040)">
<path d="M2.36525 1.08203V3.26953" stroke="url(#paint8_linear_136_1040)" stroke-width="0.375" stroke-linecap="round"/>
</g>
<path d="M0.251999 2.02359V1.74609H2.48625V2.02359H0.251999Z" fill="#3A92EA"/>
<path d="M0.251999 2.02359V1.74609H2.48625V2.02359H0.251999Z" fill="url(#paint9_linear_136_1040)"/>
<path d="M0.251999 2.02359V1.74609H2.48625V2.02359H0.251999Z" fill="url(#paint10_linear_136_1040)"/>
<path d="M0.251999 2.02359V1.74609H2.48625V2.02359H0.251999Z" fill="url(#paint11_linear_136_1040)"/>
<path d="M0.251999 2.6055V2.32812H2.48625V2.6055H0.251999Z" fill="#3A91ED"/>
<path d="M0.251999 2.6055V2.32812H2.48625V2.6055H0.251999Z" fill="url(#paint12_linear_136_1040)"/>
<path d="M0.251999 2.6055V2.32812H2.48625V2.6055H0.251999Z" fill="url(#paint13_linear_136_1040)"/>
<path d="M0.251999 2.6055V2.32812H2.48625V2.6055H0.251999Z" fill="url(#paint14_linear_136_1040)"/>
<path d="M0.251999 3.18753V2.91016H2.48625V3.18753H0.251999Z" fill="#3A8FF0"/>
<path d="M0.251999 3.18753V2.91016H2.48625V3.18753H0.251999Z" fill="url(#paint15_linear_136_1040)"/>
<path d="M0.251999 3.18753V2.91016H2.48625V3.18753H0.251999Z" fill="url(#paint16_linear_136_1040)"/>
<path d="M0.251999 3.18753V2.91016H2.48625V3.18753H0.251999Z" fill="url(#paint17_linear_136_1040)"/>
<g filter="url(#filter5_f_136_1040)">
<path d="M3.62634 1.8374L3.62613 3.62303" stroke="url(#paint18_linear_136_1040)" stroke-width="0.375" stroke-linecap="round"/>
</g>
<g filter="url(#filter6_f_136_1040)">
<path d="M1.9355 1.03125V1.42188" stroke="#4EB7F5" stroke-width="0.375" stroke-linecap="round"/>
</g>
<g filter="url(#filter7_f_136_1040)">
<path d="M0.67775 1.03125V1.42188" stroke="#4EB7F5" stroke-width="0.375" stroke-linecap="round"/>
</g>
<g filter="url(#filter8_i_136_1040)">
<path d="M1.9375 1.35566C1.9375 1.37223 1.94409 1.38813 1.95581 1.39985C1.96753 1.41157 1.98342 1.41816 2 1.41816C2.01658 1.41816 2.03247 1.41157 2.04419 1.39985C2.05592 1.38813 2.0625 1.37223 2.0625 1.35566H1.9375ZM0.675751 1.35566C0.675751 1.37223 0.682336 1.38813 0.694057 1.39985C0.705778 1.41157 0.721675 1.41816 0.738251 1.41816C0.754827 1.41816 0.770724 1.41157 0.782445 1.39985C0.794166 1.38813 0.800751 1.37223 0.800751 1.35566H0.675751ZM1.9375 0.910156V1.35566H2.0625V0.910156H1.9375ZM0.800751 1.35566V0.910156H0.675751V1.35566H0.800751ZM1.36913 0.347656C1.68063 0.347656 1.9375 0.600281 1.9375 0.910156H2.0625C2.0625 0.529781 1.74813 0.222656 1.36913 0.222656V0.347656ZM1.36913 0.222656C0.990251 0.222656 0.675751 0.529781 0.675751 0.910156H0.800751C0.800751 0.600281 1.05775 0.347656 1.36913 0.347656V0.222656Z" fill="url(#paint19_radial_136_1040)"/>
</g>
<g filter="url(#filter9_f_136_1040)">
<path d="M2.00587 1.35553C2.00587 1.35968 2.00752 1.36365 2.01045 1.36658C2.01338 1.36951 2.01736 1.37116 2.0215 1.37116C2.02564 1.37116 2.02962 1.36951 2.03255 1.36658C2.03548 1.36365 2.03712 1.35968 2.03712 1.35553H2.00587ZM0.722625 1.35553C0.722625 1.35968 0.724271 1.36365 0.727201 1.36658C0.730132 1.36951 0.734106 1.37116 0.73825 1.37116C0.742394 1.37116 0.746368 1.36951 0.749298 1.36658C0.752229 1.36365 0.753875 1.35968 0.753875 1.35553H0.722625ZM2.00587 0.910031V1.35553H2.03712V0.910031H2.00587ZM0.753875 1.35553L0.75375 0.910031H0.7225V1.35541L0.753875 1.35553ZM1.37975 0.300781C1.72262 0.300781 2.00575 0.574031 2.00575 0.910156H2.037C2.037 0.555906 1.739 0.269531 1.37975 0.269531V0.300781ZM1.37975 0.269531C1.0205 0.269531 0.7225 0.555781 0.7225 0.910031H0.75375C0.75375 0.573906 1.03687 0.300781 1.37975 0.300781V0.269531Z" fill="url(#paint20_linear_136_1040)"/>
<path d="M2.00587 1.35553C2.00587 1.35968 2.00752 1.36365 2.01045 1.36658C2.01338 1.36951 2.01736 1.37116 2.0215 1.37116C2.02564 1.37116 2.02962 1.36951 2.03255 1.36658C2.03548 1.36365 2.03712 1.35968 2.03712 1.35553H2.00587ZM0.722625 1.35553C0.722625 1.35968 0.724271 1.36365 0.727201 1.36658C0.730132 1.36951 0.734106 1.37116 0.73825 1.37116C0.742394 1.37116 0.746368 1.36951 0.749298 1.36658C0.752229 1.36365 0.753875 1.35968 0.753875 1.35553H0.722625ZM2.00587 0.910031V1.35553H2.03712V0.910031H2.00587ZM0.753875 1.35553L0.75375 0.910031H0.7225V1.35541L0.753875 1.35553ZM1.37975 0.300781C1.72262 0.300781 2.00575 0.574031 2.00575 0.910156H2.037C2.037 0.555906 1.739 0.269531 1.37975 0.269531V0.300781ZM1.37975 0.269531C1.0205 0.269531 0.7225 0.555781 0.7225 0.910031H0.75375C0.75375 0.573906 1.03687 0.300781 1.37975 0.300781V0.269531Z" fill="url(#paint21_linear_136_1040)"/>
</g>
</g>
<defs>
<filter id="filter0_i_136_1040" x="1.84575" y="1.47266" width="2.12875" height="2.26562" filterUnits="userSpaceOnUse" color-interpolation-filters="sRGB">
<feFlood flood-opacity="0" result="BackgroundImageFix"/>
<feBlend mode="normal" in="SourceGraphic" in2="BackgroundImageFix" result="shape"/>
<feColorMatrix in="SourceAlpha" type="matrix" values="0 0 0 0 0 0 0 0 0 0 0 0 0 0 0 0 0 0 127 0" result="hardAlpha"/>
<feOffset dx="0.25" dy="-0.25"/>
<feGaussianBlur stdDeviation="0.25"/>
<feComposite in2="hardAlpha" operator="arithmetic" k2="-1" k3="1"/>
<feColorMatrix type="matrix" values="0 0 0 0 0.905882 0 0 0 0 0.556863 0 0 0 0 0.329412 0 0 0 1 0"/>
<feBlend mode="normal" in2="shape" result="effect1_innerShadow_136_1040"/>
</filter>
<filter id="filter1_f_136_1040" x="1.5605" y="1.44531" width="2.293" height="2.10547" filterUnits="userSpaceOnUse" color-interpolation-filters="sRGB">
<feFlood flood-opacity="0" result="BackgroundImageFix"/>
<feBlend mode="normal" in="SourceGraphic" in2="BackgroundImageFix" result="shape"/>
<feGaussianBlur stdDeviation="0.25" result="effect1_foregroundBlur_136_1040"/>
</filter>
<filter id="filter2_i_136_1040" x="2.127" y="1.95508" width="1.39287" height="1.01758" filterUnits="userSpaceOnUse" color-interpolation-filters="sRGB">
<feFlood flood-opacity="0" result="BackgroundImageFix"/>
<feBlend mode="normal" in="SourceGraphic" in2="BackgroundImageFix" result="shape"/>
<feColorMatrix in="SourceAlpha" type="matrix" values="0 0 0 0 0 0 0 0 0 0 0 0 0 0 0 0 0 0 127 0" result="hardAlpha"/>
<feOffset dx="0.1"/>
<feGaussianBlur stdDeviation="0.1"/>
<feComposite in2="hardAlpha" operator="arithmetic" k2="-1" k3="1"/>
<feColorMatrix type="matrix" values="0 0 0 0 0.862745 0 0 0 0 0.321569 0 0 0 0 0.109804 0 0 0 1 0"/>
<feBlend mode="normal" in2="shape" result="effect1_innerShadow_136_1040"/>
</filter>
<filter id="filter3_f_136_1040" x="2.12025" y="1.92695" width="1.34925" height="1.07383" filterUnits="userSpaceOnUse" color-interpolation-filters="sRGB">
<feFlood flood-opacity="0" result="BackgroundImageFix"/>
<feBlend mode="normal" in="SourceGraphic" in2="BackgroundImageFix" result="shape"/>
<feGaussianBlur stdDeviation="0.0375" result="effect1_foregroundBlur_136_1040"/>
</filter>
<filter id="filter4_f_136_1040" x="1.80275" y="0.519531" width="1.125" height="3.3125" filterUnits="userSpaceOnUse" color-interpolation-filters="sRGB">
<feFlood flood-opacity="0" result="BackgroundImageFix"/>
<feBlend mode="normal" in="SourceGraphic" in2="BackgroundImageFix" result="shape"/>
<feGaussianBlur stdDeviation="0.1875" result="effect1_foregroundBlur_136_1040"/>
</filter>
<filter id="filter5_f_136_1040" x="3.18863" y="1.3999" width="0.875217" height="2.66064" filterUnits="userSpaceOnUse" color-interpolation-filters="sRGB">
<feFlood flood-opacity="0" result="BackgroundImageFix"/>
<feBlend mode="normal" in="SourceGraphic" in2="BackgroundImageFix" result="shape"/>
<feGaussianBlur stdDeviation="0.125" result="effect1_foregroundBlur_136_1040"/>
</filter>
<filter id="filter6_f_136_1040" x="1.248" y="0.34375" width="1.375" height="1.76562" filterUnits="userSpaceOnUse" color-interpolation-filters="sRGB">
<feFlood flood-opacity="0" result="BackgroundImageFix"/>
<feBlend mode="normal" in="SourceGraphic" in2="BackgroundImageFix" result="shape"/>
<feGaussianBlur stdDeviation="0.25" result="effect1_foregroundBlur_136_1040"/>
</filter>
<filter id="filter7_f_136_1040" x="-0.00975037" y="0.34375" width="1.375" height="1.76562" filterUnits="userSpaceOnUse" color-interpolation-filters="sRGB">
<feFlood flood-opacity="0" result="BackgroundImageFix"/>
<feBlend mode="normal" in="SourceGraphic" in2="BackgroundImageFix" result="shape"/>
<feGaussianBlur stdDeviation="0.25" result="effect1_foregroundBlur_136_1040"/>
</filter>
<filter id="filter8_i_136_1040" x="0.675751" y="0.172656" width="1.38675" height="1.24531" filterUnits="userSpaceOnUse" color-interpolation-filters="sRGB">
<feFlood flood-opacity="0" result="BackgroundImageFix"/>
<feBlend mode="normal" in="SourceGraphic" in2="BackgroundImageFix" result="shape"/>
<feColorMatrix in="SourceAlpha" type="matrix" values="0 0 0 0 0 0 0 0 0 0 0 0 0 0 0 0 0 0 127 0" result="hardAlpha"/>
<feOffset dy="-0.05"/>
<feGaussianBlur stdDeviation="0.1"/>
<feComposite in2="hardAlpha" operator="arithmetic" k2="-1" k3="1"/>
<feColorMatrix type="matrix" values="0 0 0 0 0.164706 0 0 0 0 0.560784 0 0 0 0 0.886275 0 0 0 1 0"/>
<feBlend mode="normal" in2="shape" result="effect1_innerShadow_136_1040"/>
</filter>
<filter id="filter9_f_136_1040" x="0.5975" y="0.144531" width="1.56462" height="1.35156" filterUnits="userSpaceOnUse" color-interpolation-filters="sRGB">
<feFlood flood-opacity="0" result="BackgroundImageFix"/>
<feBlend mode="normal" in="SourceGraphic" in2="BackgroundImageFix" result="shape"/>
<feGaussianBlur stdDeviation="0.0625" result="effect1_foregroundBlur_136_1040"/>
</filter>
<linearGradient id="paint0_linear_136_1040" x1="2.31837" y1="2.13291" x2="2.95112" y2="3.22666" gradientUnits="userSpaceOnUse">
<stop stop-color="#FEC243"/>
<stop offset="1" stop-color="#FDB046"/>
</linearGradient>
<radialGradient id="paint1_radial_136_1040" cx="0" cy="0" r="1" gradientUnits="userSpaceOnUse" gradientTransform="translate(1.95821 3.39295) rotate(52.08) scale(0.437874 0.595608)">
<stop offset="0.225" stop-color="#D38D3C"/>
<stop offset="1" stop-color="#D38D3C" stop-opacity="0"/>
</radialGradient>
<linearGradient id="paint2_linear_136_1040" x1="3.26075" y1="1.9727" x2="3.26075" y2="2.75595" gradientUnits="userSpaceOnUse">
<stop stop-color="#F38362"/>
<stop offset="1" stop-color="#F38362" stop-opacity="0"/>
</linearGradient>
<linearGradient id="paint3_linear_136_1040" x1="2.36137" y1="2.75595" x2="3.15037" y2="2.75595" gradientUnits="userSpaceOnUse">
<stop stop-color="#F38362"/>
<stop offset="1" stop-color="#F38362" stop-opacity="0"/>
</linearGradient>
<linearGradient id="paint4_linear_136_1040" x1="1.36912" y1="0.960938" x2="1.36912" y2="3.47256" gradientUnits="userSpaceOnUse">
<stop stop-color="#59C1FA"/>
<stop offset="1" stop-color="#49A8FF"/>
</linearGradient>
<linearGradient id="paint5_linear_136_1040" x1="0.251999" y1="3.18356" x2="0.470749" y2="3.18356" gradientUnits="userSpaceOnUse">
<stop stop-color="#419CE0"/>
<stop offset="1" stop-color="#449FEE" stop-opacity="0"/>
</linearGradient>
<linearGradient id="paint6_linear_136_1040" x1="1.32612" y1="3.53119" x2="1.32612" y2="2.98431" gradientUnits="userSpaceOnUse">
<stop stop-color="#4676F8"/>
<stop offset="1" stop-color="#439AFF" stop-opacity="0"/>
</linearGradient>
<linearGradient id="paint7_linear_136_1040" x1="1.36912" y1="0.960938" x2="1.36912" y2="1.23044" gradientUnits="userSpaceOnUse">
<stop offset="0.159" stop-color="#61C9E8"/>
<stop offset="1" stop-color="#61C9E8" stop-opacity="0"/>
</linearGradient>
<linearGradient id="paint8_linear_136_1040" x1="-nan" y1="-nan" x2="-nan" y2="-nan" gradientUnits="userSpaceOnUse">
<stop stop-color="#80E8FF"/>
<stop offset="0.739" stop-color="#5BB8FF"/>
<stop offset="1" stop-color="#54AFFF"/>
</linearGradient>
<linearGradient id="paint9_linear_136_1040" x1="0.251999" y1="1.93759" x2="0.482374" y2="1.93759" gradientUnits="userSpaceOnUse">
<stop offset="0.196" stop-color="#2A81CD"/>
<stop offset="1" stop-color="#2A81CD" stop-opacity="0"/>
</linearGradient>
<linearGradient id="paint10_linear_136_1040" x1="2.48637" y1="1.93759" x2="2.26762" y2="1.93759" gradientUnits="userSpaceOnUse">
<stop stop-color="#51A9F3"/>
<stop offset="1" stop-color="#51A9F3" stop-opacity="0"/>
</linearGradient>
<linearGradient id="paint11_linear_136_1040" x1="2.48637" y1="2.02359" x2="2.38475" y2="2.02359" gradientUnits="userSpaceOnUse">
<stop stop-color="#3C97EE"/>
<stop offset="1" stop-color="#3C97EE" stop-opacity="0"/>
</linearGradient>
<linearGradient id="paint12_linear_136_1040" x1="0.251999" y1="2.5195" x2="0.482374" y2="2.5195" gradientUnits="userSpaceOnUse">
<stop offset="0.196" stop-color="#2A81CD"/>
<stop offset="1" stop-color="#2A81CD" stop-opacity="0"/>
</linearGradient>
<linearGradient id="paint13_linear_136_1040" x1="2.48637" y1="2.5195" x2="2.26762" y2="2.5195" gradientUnits="userSpaceOnUse">
<stop stop-color="#51A9F3"/>
<stop offset="1" stop-color="#51A9F3" stop-opacity="0"/>
</linearGradient>
<linearGradient id="paint14_linear_136_1040" x1="2.48637" y1="2.6055" x2="2.38475" y2="2.6055" gradientUnits="userSpaceOnUse">
<stop stop-color="#3C97EE"/>
<stop offset="1" stop-color="#3C97EE" stop-opacity="0"/>
</linearGradient>
<linearGradient id="paint15_linear_136_1040" x1="0.251999" y1="3.10166" x2="0.482374" y2="3.10166" gradientUnits="userSpaceOnUse">
<stop offset="0.196" stop-color="#2A81CD"/>
<stop offset="1" stop-color="#2A81CD" stop-opacity="0"/>
</linearGradient>
<linearGradient id="paint16_linear_136_1040" x1="2.48637" y1="3.10166" x2="2.26762" y2="3.10166" gradientUnits="userSpaceOnUse">
<stop stop-color="#51A9F3"/>
<stop offset="1" stop-color="#51A9F3" stop-opacity="0"/>
</linearGradient>
<linearGradient id="paint17_linear_136_1040" x1="2.48637" y1="3.18753" x2="2.38475" y2="3.18753" gradientUnits="userSpaceOnUse">
<stop stop-color="#3C97EE"/>
<stop offset="1" stop-color="#3C97EE" stop-opacity="0"/>
</linearGradient>
<linearGradient id="paint18_linear_136_1040" x1="142908" y1="1.80315" x2="142908" y2="3.42903" gradientUnits="userSpaceOnUse">
<stop stop-color="#FFD262"/>
<stop offset="1" stop-color="#FFB84A"/>
</linearGradient>
<radialGradient id="paint19_radial_136_1040" cx="0" cy="0" r="1" gradientUnits="userSpaceOnUse" gradientTransform="translate(1.0605 0.347781) rotate(72.9753) scale(1.054 1.24249)">
<stop stop-color="#2C94E3"/>
<stop offset="1" stop-color="#2C9CEB"/>
</radialGradient>
<linearGradient id="paint20_linear_136_1040" x1="1.55475" y1="1.41803" x2="1.55475" y2="0.761781" gradientUnits="userSpaceOnUse">
<stop stop-color="#53A9F2"/>
<stop offset="1" stop-color="#53A9F2" stop-opacity="0"/>
</linearGradient>
<linearGradient id="paint21_linear_136_1040" x1="1.97462" y1="0.523531" x2="1.7285" y2="0.820406" gradientUnits="userSpaceOnUse">
<stop stop-color="#61B2F2"/>
<stop offset="1" stop-color="#61B2F2" stop-opacity="0"/>
</linearGradient>
<clipPath id="clip0_136_1040">
<rect width="4" height="4" fill="white"/>
</clipPath>
</defs>
</svg>
