<svg width="5" height="5" viewBox="0 0 5 5" fill="none" xmlns="http://www.w3.org/2000/svg">
<g clip-path="url(#clip0_136_1081)">
<path d="M4.58333 3.94466C4.58333 4.18911 4.33333 4.38911 4.02778 4.38911H0.972223C0.666668 4.38911 0.416668 4.18911 0.416668 3.94466V2.05577C0.416668 1.81133 0.666668 1.61133 0.972223 1.61133H4.02778C4.33333 1.61133 4.58333 1.81133 4.58333 2.05577V3.94466Z" fill="#FDD888"/>
<path d="M5 1.72228C5 1.96672 4.75 2.16672 4.44444 2.16672H0.555556C0.25 2.16672 0 1.96672 0 1.72228C0 1.47783 0.25 1.27783 0.555556 1.27783H4.44444C4.75 1.27783 5 1.47783 5 1.72228Z" fill="#FDD888"/>
<path d="M0.416668 2.1665H4.58333V2.38873H0.416668V2.1665Z" fill="#FCAB40"/>
<path d="M2.63889 0.833496H2.36111C2.2506 0.833496 2.14462 0.868615 2.06648 0.931127C1.98834 0.993639 1.94444 1.07842 1.94444 1.16683V4.38905H3.05555V1.16683C3.05555 1.07842 3.01166 0.993639 2.93352 0.931127C2.85537 0.868615 2.74939 0.833496 2.63889 0.833496Z" fill="#DA2F47"/>
<path d="M2.22222 1.2779C2.375 1.2779 2.39764 1.22057 2.27236 1.15046L1.33875 0.627567C1.3101 0.610881 1.27734 0.599272 1.24264 0.593514C1.20795 0.587755 1.17212 0.58798 1.13754 0.594173C1.10296 0.600366 1.07043 0.612385 1.04211 0.629428C1.0138 0.646471 0.990351 0.668147 0.973332 0.693012L0.693332 1.08501C0.617499 1.19112 0.680554 1.2779 0.833332 1.2779H2.22222ZM2.77778 1.2779C2.625 1.2779 2.60236 1.22057 2.72764 1.15046L3.66139 0.627567C3.69004 0.610899 3.7228 0.599305 3.7575 0.593556C3.79219 0.587808 3.82801 0.588037 3.86258 0.594229C3.89715 0.60042 3.92968 0.612432 3.958 0.629465C3.98631 0.646498 4.00977 0.668161 4.0268 0.693012L4.3068 1.0849C4.3825 1.19112 4.31944 1.2779 4.16667 1.2779H2.77778Z" fill="#DA2F47"/>
</g>
<defs>
<clipPath id="clip0_136_1081">
<rect width="5" height="4" fill="white" transform="translate(0 0.5)"/>
</clipPath>
</defs>
</svg>
