<svg width="32" height="32" viewBox="0 0 32 32" fill="none" xmlns="http://www.w3.org/2000/svg">
<path d="M24.9462 25.5442C24.9462 25.5442 24.1273 21.8977 23.5327 19.5785C23.3051 18.6909 22.9341 17.3099 22.9341 17.3099C22.9341 17.3099 22.5609 16.0466 22.1335 15.3308C21.8504 14.8566 21.289 14.1965 21.289 14.1965C21.289 14.1965 20.0385 12.8646 19.455 12.9172C18.8715 12.9697 17.6984 13.4123 16.7849 14.441C15.8715 15.4698 16.5055 16.7425 13.3715 16.4698C11.9808 16.3487 10.3715 16.4698 9.81145 16.7921C9.25145 17.1144 9.15779 17.2137 9.53686 17.6153C9.91593 18.0169 15.8715 18.4698 17.1731 17.7763C18.4747 17.0829 16.8451 29.6423 17.3715 29.4698C17.8978 29.2973 18.8715 28.9698 18.8715 28.9698C18.8715 28.9698 19.8113 28.7296 20.3715 28.4698C20.5205 28.4006 20.3715 22.4698 20.8715 21.9698C21.3715 21.4698 22.8722 27.0791 23.5327 26.6283C24.1932 26.1775 24.3715 25.9698 24.3715 25.9698L24.9462 25.5442Z" fill="#EF4141"/>
<path d="M6.14744 24.6159C6.14744 24.6159 6.96634 20.9694 7.56094 18.6502C7.78849 17.7626 7.86768 17.2501 8.15954 16.3816C8.42511 15.5913 8.53274 15.1184 8.96013 14.4026C9.24326 13.9284 9.80466 13.2682 9.80466 13.2682L11.6386 11.9889C11.6386 11.9889 13.3953 12.484 14.3087 13.5128C15.2222 14.5415 14.5881 15.8143 17.7222 15.5415C19.1129 15.4205 20.7222 15.5415 21.2822 15.8638C21.8422 16.1861 21.9358 16.2855 21.5568 16.687C21.1777 17.0886 15.2222 17.5415 13.9205 16.848C12.6189 16.1546 14.2485 28.714 13.7222 28.5415C13.1958 28.369 12.2222 28.0415 12.2222 28.0415C12.2222 28.0415 11.2823 27.8013 10.7222 27.5415C10.5731 27.4724 10.7222 21.5415 10.2222 21.0415C9.72217 20.5415 8.22144 26.1509 7.56094 25.7001C6.90043 25.2493 6.72217 25.0415 6.72217 25.0415L6.14744 24.6159Z" fill="#63DEE5"/>
<path d="M10.4723 17.8965C11.0803 17.7901 16.5133 18.9551 18.0797 18.6559C18.8362 18.5114 18.9554 17.8589 18.4932 17.357C18.0311 16.8551 16.8215 15.0974 16.0475 16.2014C15.2736 17.3054 10.6073 16.5431 10.0552 16.9435C9.50314 17.3439 9.86429 18.003 10.4723 17.8965Z" fill="#EF4141"/>
<circle cx="13.7222" cy="10.5415" r="3" fill="#64DEE4"/>
<circle cx="17.7222" cy="11.5415" r="3" fill="#EF4141"/>
<path d="M15.8676 15.8302C15.8676 15.8302 13.2983 16.0434 12.7982 16.5434C12.5495 16.7921 13.7057 16.9 15.1976 17.0392L15.2222 17.0415C16.7245 17.1817 18.4835 17.3798 18.6822 16.9678C18.7715 16.7826 18.6822 16.5283 18.6822 16.5283L16.8675 15.8296L15.8676 15.8302Z" fill="#64DEE4"/>
<path d="M15.3783 11.4468C15.3195 11.4081 15.3027 11.3285 15.3485 11.2752C15.4167 11.1957 15.4972 11.1272 15.5871 11.0725C15.7133 10.9956 15.855 10.9477 16.002 10.9321C16.149 10.9166 16.2976 10.9338 16.4371 10.9825C16.5365 11.0173 16.6295 11.0674 16.7128 11.1308C16.7688 11.1734 16.769 11.2547 16.7196 11.3048C16.6703 11.3549 16.5901 11.3545 16.5324 11.3144C16.4772 11.276 16.4169 11.2452 16.3531 11.2229C16.2491 11.1866 16.1383 11.1738 16.0288 11.1854C15.9192 11.1969 15.8136 11.2327 15.7195 11.29C15.6618 11.3251 15.6093 11.3679 15.5634 11.4169C15.5153 11.4682 15.437 11.4854 15.3783 11.4468Z" fill="white"/>
<path d="M17.6886 11.342C17.6364 11.2949 17.6318 11.2137 17.6852 11.1679C17.7646 11.0997 17.8545 11.0442 17.9516 11.0036C18.088 10.9467 18.2353 10.9208 18.383 10.9276C18.5307 10.9345 18.6749 10.9739 18.8055 11.0432C18.8985 11.0926 18.9828 11.1562 19.0556 11.2315C19.1045 11.282 19.0924 11.3625 19.036 11.4045C18.9797 11.4466 18.9005 11.434 18.8495 11.3856C18.8007 11.3394 18.7458 11.2999 18.6861 11.2682C18.5888 11.2165 18.4813 11.1871 18.3712 11.182C18.2612 11.1769 18.1513 11.1962 18.0497 11.2387C17.9873 11.2647 17.9289 11.299 17.8761 11.3405C17.8208 11.384 17.7409 11.3891 17.6886 11.342Z" fill="white"/>
<path d="M18.0163 12.5063C18.0704 12.5511 18.0784 12.6321 18.0271 12.6801C17.9505 12.7516 17.8631 12.8109 17.7677 12.8554C17.6338 12.918 17.4877 12.9502 17.3399 12.9495C17.1921 12.9489 17.0463 12.9155 16.9129 12.8517C16.818 12.8063 16.731 12.7464 16.6551 12.6742C16.6042 12.6257 16.6129 12.5448 16.6675 12.5004C16.722 12.4561 16.8016 12.4653 16.8546 12.5115C16.9053 12.5556 16.9618 12.5928 17.0228 12.622C17.1222 12.6695 17.2309 12.6944 17.341 12.6949C17.4512 12.6953 17.5601 12.6714 17.6599 12.6247C17.7211 12.5961 17.778 12.5594 17.829 12.5157C17.8824 12.47 17.9621 12.4614 18.0163 12.5063Z" fill="white"/>
<path d="M27.0625 8.1281C28.1526 7.35237 29.684 7.60134 30.2865 8.79603C31.235 10.6771 31.8064 12.7344 31.9587 14.8515C32.1693 17.7775 31.5714 20.7051 30.2303 23.3142C28.8893 25.9233 26.8567 28.1135 24.3548 29.6454C21.853 31.1772 18.9781 31.9918 16.0446 31.9999C13.111 32.0081 10.2316 31.2096 7.72128 29.6917C5.21092 28.1738 3.1662 25.995 1.81063 23.3934C0.45507 20.7918 -0.15915 17.8676 0.0351235 14.9404C0.175689 12.8225 0.735598 10.762 1.67364 8.87571C2.26939 7.67768 3.79941 7.42018 4.89386 8.18983C5.98832 8.95949 6.22296 10.4657 5.70723 11.7003C5.23612 12.8281 4.95142 14.0308 4.86975 15.2613C4.73431 17.302 5.16252 19.3407 6.10758 21.1544C7.05264 22.9682 8.47817 24.4872 10.2283 25.5455C11.9785 26.6037 13.9859 27.1604 16.0311 27.1547C18.0763 27.149 20.0805 26.5811 21.8248 25.5132C23.569 24.4452 24.986 22.9183 25.921 21.0993C26.8559 19.2803 27.2728 17.2392 27.126 15.1993C27.0374 13.9693 26.746 12.7682 26.2687 11.6431C25.7461 10.4114 25.9723 8.90384 27.0625 8.1281Z" fill="black"/>
</svg>
